# xmcd
#
# Track frame offsets: 
#        150
#        4521
#        27208
#        42868
#        61746
#        81959
#        101168
#        103368
#        123631
#        140614
#        156713
#        175416
#        175836
#        192788
#        213253
#        232213
#        254868
#
# Disc length: 3492 seconds
#
# Revision: 1
# Processed by: cddbd v1.5PL3 Copyright (c) Steve Scherf et al.
# Submitted via: ExactAudioCopy v0.95a4
#
DISCID=fb0da211
DTITLE=Sol Flower - 10 Million Ways To Live
DYEAR=2004
DGENRE=Soul
TTITLE0=Voyage To The Cheyenne
TTITLE1=Kiss The Kids
TTITLE2=끝까지 친구 Feat. Lyn
TTITLE3=Calling
TTITLE4=세상, 그 중심의 나
TTITLE5=Another Day(후회는 차라리 미움보다 나아)
TTITLE6=Time Goes By...interlude
TTITLE7=내게 소중한 작은 일도
TTITLE8=Mother Feat. Park Sun Joo
TTITLE9=Every Single Second
TTITLE10=비
TTITLE11=내가 왜 그 사람을 잊지 못하는지 말해줄께...Interlude
TTITLE12=부탁하지마
TTITLE13=Four seasons
TTITLE14=여자의 이름으로
TTITLE15=Kiss The Kids(Instrumental Version)
TTITLE16=Call My Name...Sol Flower
EXTD=YEAR: 2004
EXTT0=
EXTT1=
EXTT2=
EXTT3=
EXTT4=
EXTT5=
EXTT6=
EXTT7=
EXTT8=
EXTT9=
EXTT10=
EXTT11=
EXTT12=
EXTT13=
EXTT14=
EXTT15=
EXTT16=
PLAYORDER=
